<?xml version="1.0" encoding="UTF-8" standalone="no"?><!DOCTYPE svg PUBLIC "-//W3C//DTD SVG 1.1//EN" "http://www.w3.org/Graphics/SVG/1.1/DTD/svg11.dtd"><svg width="100%" height="100%" viewBox="0 0 81 81" version="1.1" xmlns="http://www.w3.org/2000/svg" xmlns:xlink="http://www.w3.org/1999/xlink" xml:space="preserve" xmlns:serif="http://www.serif.com/" style="fill-rule:evenodd;clip-rule:evenodd;stroke-linejoin:round;stroke-miterlimit:2;"><g><g><path d="M56.958,31.719c0,-7.44 -6.053,-13.492 -13.493,-13.492l-5.515,0c-7.44,0 -13.492,6.052 -13.492,13.492c0,1.099 0.135,2.2 0.402,3.273l1.063,4.245l-0.078,0.537c0.424,-1.607 1.873,-2.797 3.613,-2.797l1.428,0l-0.165,-2.303c-0.008,-0.131 -0.013,-0.264 -0.013,-0.396l0,-0.295c0,-1.254 0.626,-2.425 1.67,-3.12c1.356,-0.904 2.95,-1.386 4.58,-1.386l0.145,0c2.278,0 4.433,1.036 5.856,2.815l1.481,1.851c0.801,1.001 2.014,1.584 3.296,1.584c1.159,0 2.208,-0.469 2.97,-1.224l-0.001,0.004l-0.176,2.47l1.429,0c1.74,0 3.188,1.19 3.612,2.797l-0.077,-0.537l1.063,-4.245c0.267,-1.073 0.402,-2.173 0.402,-3.273Z" style="fill:#c59969;fill-rule:nonzero;"/></g><g><g><path d="M28.208,17.354l-6.773,-5.644c-1.256,-1.047 -1.977,-2.587 -1.977,-4.223c0,-1.468 0.571,-2.848 1.608,-3.888c1.05,-1.049 2.435,-1.622 3.909,-1.622l0.215,0c1.088,0 2.128,0.312 3.018,0.896c0.89,-0.584 1.93,-0.896 3.017,-0.896l0.215,0c1.474,0 2.859,0.573 3.901,1.615c1.045,1.046 1.617,2.427 1.617,3.895c0,1.637 -0.722,3.176 -1.978,4.223l-6.772,5.644Z" style="fill:#c59969;fill-rule:nonzero;"/></g></g><g><g><path d="M10.708,29.854l-6.773,-5.644c-1.256,-1.047 -1.977,-2.587 -1.977,-4.223c0,-1.468 0.571,-2.848 1.608,-3.888c1.05,-1.049 2.435,-1.622 3.909,-1.622l0.215,0c1.088,0 2.128,0.312 3.018,0.896c0.89,-0.584 1.93,-0.896 3.017,-0.896l0.215,0c1.474,0 2.859,0.573 3.901,1.615c1.045,1.046 1.617,2.427 1.617,3.895c0,1.637 -0.722,3.176 -1.978,4.223l-6.772,5.644Z" style="fill:#c59969;fill-rule:nonzero;"/></g></g><g><g><path d="M53.208,17.354l-6.773,-5.644c-1.256,-1.047 -1.977,-2.587 -1.977,-4.223c0,-1.468 0.571,-2.848 1.608,-3.888c1.05,-1.049 2.435,-1.622 3.909,-1.622l0.215,0c1.088,0 2.128,0.312 3.018,0.896c0.89,-0.584 1.93,-0.896 3.017,-0.896l0.215,0c1.474,0 2.859,0.573 3.901,1.615c1.045,1.046 1.617,2.427 1.617,3.895c0,1.637 -0.722,3.176 -1.978,4.223l-6.772,5.644Z" style="fill:#c59969;fill-rule:nonzero;"/></g></g><g><g><path d="M70.708,29.854l-6.773,-5.644c-1.256,-1.047 -1.977,-2.587 -1.977,-4.223c0,-1.468 0.571,-2.848 1.608,-3.888c1.05,-1.049 2.435,-1.622 3.909,-1.622l0.215,0c1.088,0 2.128,0.312 3.018,0.896c0.89,-0.584 1.93,-0.896 3.017,-0.896l0.215,0c1.474,0 2.859,0.573 3.901,1.615c1.045,1.046 1.617,2.427 1.617,3.895c0,1.637 -0.722,3.176 -1.978,4.223l-6.772,5.644Z" style="fill:#c59969;fill-rule:nonzero;"/></g></g><g><path d="M40.708,48.227c2.757,0 5,-2.243 5,-5l0,-2.5l-10,0l0,2.5c0,2.757 2.242,5 5,5Zm2.5,-5c0,1.378 -1.122,2.5 -2.5,2.5c-1.379,0 -2.5,-1.122 -2.5,-2.5l5,0Z" style="fill:#0d1525;fill-rule:nonzero;"/><path d="M75.46,35.727l-1.735,0l-1.166,-1.167c-0.86,-0.86 -2.004,-1.333 -3.22,-1.333c-1.963,0 -3.699,1.251 -4.32,3.113l-0.396,1.189l-17.295,16.143l-1.025,-2.052c2.148,-1.337 3.792,-3.42 4.563,-5.892l1.092,0c2.757,0 5,-2.243 5,-5c0,-2.758 -2.243,-5 -5,-5l-0.087,0l0.05,-0.701c0.803,-0.953 1.287,-2.182 1.287,-3.522l0,-0.778l-2.5,0l0,0.778c0,1.639 -1.333,2.972 -2.972,2.972c-0.907,0 -1.752,-0.407 -2.318,-1.117l-1.482,-1.85c-1.67,-2.086 -4.16,-3.283 -6.833,-3.283l-0.145,0c-1.883,0 -3.707,0.552 -5.274,1.596c-1.394,0.93 -2.226,2.485 -2.226,4.16l0,0.295c0,0.164 0.006,0.326 0.018,0.485l0.069,0.964l-0.087,0c-2.758,0 -5,2.242 -5,5c0,2.757 2.242,5 5,5l1.092,0c0.771,2.472 2.414,4.556 4.564,5.892l-1.025,2.051l-17.296,-16.141l-0.397,-1.19c-0.621,-1.861 -2.357,-3.112 -4.32,-3.112c-1.216,0 -2.36,0.473 -3.22,1.333l-1.166,1.167l-1.735,0c-2.204,0 -3.997,1.793 -3.997,3.997c0,1.899 1.351,3.548 3.212,3.92l3.648,0.729l16.89,18.096l0,17.008l30,0l0,-17.008l16.89,-18.096l3.647,-0.729c1.861,-0.372 3.213,-2.021 3.213,-3.92c0,-2.204 -1.794,-3.997 -3.998,-3.997Zm-23.502,2.5c1.378,0 2.5,1.121 2.5,2.5c0,1.378 -1.122,2.5 -2.5,2.5l-0.623,0l0.358,-5l0.265,0Zm-25,2.5c0,-1.379 1.121,-2.5 2.5,-2.5l0.265,0l0.356,5l-0.621,0c-1.379,0 -2.5,-1.122 -2.5,-2.5Zm8.75,17.601l1.968,1.575c-0.683,0.205 -1.346,0.469 -1.968,0.819l0,-2.394Zm-3.128,-15.169l-0.611,-8.577c-0.008,-0.102 -0.011,-0.203 -0.011,-0.304l0,-0.295c0,-0.838 0.416,-1.615 1.113,-2.08c1.154,-0.769 2.499,-1.176 3.887,-1.176l0.145,0c1.908,0 3.687,0.855 4.88,2.346l1.481,1.85c1.044,1.305 2.601,2.054 4.272,2.054c0.54,0 1.063,-0.079 1.555,-0.225l-0.456,6.407c-0.304,4.244 -3.874,7.568 -8.127,7.568c-4.254,0 -7.824,-3.324 -8.128,-7.568Zm8.128,10.068c1.16,0 2.277,-0.199 3.328,-0.549l1.352,2.704l-4.68,3.743l-4.68,-3.743l1.351,-2.704c1.051,0.35 2.169,0.549 3.329,0.549Zm5,5.101l0,2.394c-0.623,-0.35 -1.285,-0.614 -1.969,-0.819l1.969,-1.575Zm-41.25,-18.604c0,-0.825 0.671,-1.497 1.497,-1.497l2.77,0l1.899,-1.899c0.387,-0.388 0.904,-0.601 1.452,-0.601c0.885,0 1.669,0.565 1.95,1.403l0.222,0.664l-5.115,4.093l-3.47,-0.694c-0.699,-0.14 -1.205,-0.758 -1.205,-1.469Zm48.75,21.76l0,15.493l-25,0l0,-15.493l-16.915,-18.124l4.352,-3.482l17.563,16.392l0,9.975l2.133,-2.135c1.377,-1.376 3.205,-2.133 5.152,-2.133l0.43,0c1.946,0 3.776,0.757 5.151,2.133l2.134,2.135l0,-9.975l17.562,-16.392l4.353,3.482l-16.915,18.124Zm22.546,-20.291l-3.47,0.694l-5.115,-4.093l0.221,-0.662c0.28,-0.84 1.064,-1.405 1.949,-1.405c0.547,0 1.065,0.213 1.452,0.601l1.899,1.899l2.77,0c0.826,0 1.498,0.672 1.498,1.497c0,0.711 -0.507,1.329 -1.204,1.469Z" style="fill:#0d1525;fill-rule:nonzero;"/></g></g></svg>